<?xml version="1.0" encoding="utf-8"?>
<!-- Generator: Adobe Illustrator 26.2.1, SVG Export Plug-In . SVG Version: 6.00 Build 0)  -->
<svg version="1.1" id="레이어_1" xmlns="http://www.w3.org/2000/svg" xmlns:xlink="http://www.w3.org/1999/xlink" x="0px"
	 y="0px" viewBox="0 0 64 64" style="enable-background:new 0 0 64 64;" xml:space="preserve">
<style type="text/css">
	.st0{fill:#FBC600;}
	.st1{fill:#331F00;}
	.st2{fill:#FFFFFF;}
</style>
<g>
	<g>
		<path class="st0" d="M27.35,58.56h-1.97c-1.37,0-2.48-1.11-2.48-2.48v-2.97c0-1.37,1.11-2.48,2.48-2.48h1.97
			c1.37,0,2.48,1.11,2.48,2.48v2.97C29.83,57.45,28.72,58.56,27.35,58.56z"/>
		<path class="st1" d="M27.38,59.6h-2.02c-1.93,0-3.49-1.57-3.49-3.49v-3.02c0-1.93,1.57-3.49,3.49-3.49h2.02
			c1.93,0,3.49,1.57,3.49,3.49v3.02C30.87,58.04,29.3,59.6,27.38,59.6z M25.35,51.68c-0.78,0-1.41,0.63-1.41,1.41v3.02
			c0,0.78,0.63,1.41,1.41,1.41h2.02c0.78,0,1.41-0.63,1.41-1.41v-3.02c0-0.78-0.63-1.41-1.41-1.41H25.35z"/>
	</g>
	<g>
		<path class="st0" d="M37.6,58.56h-1.97c-1.37,0-2.48-1.11-2.48-2.48v-2.97c0-1.37,1.11-2.48,2.48-2.48h1.97
			c1.37,0,2.48,1.11,2.48,2.48v2.97C40.08,57.45,38.97,58.56,37.6,58.56z"/>
		<path class="st1" d="M37.63,59.6H35.6c-1.93,0-3.49-1.57-3.49-3.49v-3.02c0-1.93,1.57-3.49,3.49-3.49h2.02
			c1.93,0,3.49,1.57,3.49,3.49v3.02C41.12,58.04,39.55,59.6,37.63,59.6z M35.6,51.68c-0.78,0-1.41,0.63-1.41,1.41v3.02
			c0,0.78,0.63,1.41,1.41,1.41h2.02c0.78,0,1.41-0.63,1.41-1.41v-3.02c0-0.78-0.63-1.41-1.41-1.41H35.6z"/>
	</g>
	<g>
		<path class="st1" d="M33.82,54.67c-0.01,0-0.03,0-0.04,0c-0.58-0.02-1.02-0.51-1-1.08c0.04-0.94-0.2-2.3-0.61-3.47
			c-0.19-0.54,0.1-1.14,0.64-1.33c0.54-0.19,1.14,0.1,1.33,0.64c0.39,1.11,0.78,2.81,0.72,4.23C34.84,54.23,34.37,54.67,33.82,54.67
			z"/>
	</g>
	<g>
		<path class="st1" d="M27.04,54.4C27.04,54.4,27.04,54.4,27.04,54.4c-0.58,0-1.05-0.47-1.04-1.05c0-0.72,0.11-1.41,0.21-2.07
			c0.1-0.66,0.2-1.28,0.19-1.89c-0.01-0.58,0.45-1.05,1.03-1.06c0,0,0.01,0,0.01,0c0.57,0,1.04,0.46,1.04,1.03
			c0.01,0.79-0.1,1.52-0.21,2.24c-0.09,0.62-0.18,1.2-0.19,1.76C28.09,53.94,27.62,54.4,27.04,54.4z"/>
	</g>
	<g>
		<path class="st0" d="M28.62,11.01c3.69-0.57,7.62,0.09,10.95,1.83c9,4.68,12.33,16.55,10,25.91c-3.39,13.64-22.01,15.39-30.8,6.07
			c-8.87-9.41-5.4-27.24,6.25-32.76C26.17,11.5,27.36,11.21,28.62,11.01z"/>
		<path class="st1" d="M33.02,51.68c-5.68,0-11.29-2.22-15-6.16c-4.36-4.63-6.18-11.6-4.85-18.65c1.34-7.12,5.61-13.01,11.41-15.77
			c1.11-0.53,2.34-0.88,3.89-1.12l0,0c3.91-0.61,8.03,0.08,11.6,1.93c4.42,2.3,7.88,6.48,9.75,11.78c1.71,4.85,2,10.43,0.78,15.31
			C49.1,44.98,44.64,49.36,38.35,51C36.61,51.46,34.81,51.68,33.02,51.68z M28.78,12.04c-1.36,0.21-2.38,0.5-3.31,0.95
			c-5.21,2.47-9.04,7.8-10.26,14.27c-1.2,6.4,0.41,12.69,4.32,16.84c4.38,4.64,11.73,6.61,18.3,4.89
			c5.52-1.45,9.44-5.27,10.73-10.49c2.14-8.62-0.81-20.23-9.47-24.73C35.92,12.11,32.25,11.5,28.78,12.04L28.78,12.04z"/>
	</g>
	<g>
		<path class="st2" d="M51.72,32.24c0,0,1.07,7.63-1.83,13.09c-4.63,8.7-18.03,12.53-28.27,7.11c-5.37-2.85-7.27-6.89-8.44-10.36
			c-1.32-3.89-1.08-9.8-1.08-9.8s6.81,4.77,6.99,4.74l6.26-4.96l6.81,4.9l6.52-4.84l6.41,4.85L51.72,32.24z"/>
		<path class="st1" d="M31.97,55.98c-3.71,0-7.46-0.84-10.84-2.63c-5.62-2.98-7.68-7.21-8.94-10.95c-1.36-4.02-1.15-9.92-1.14-10.17
			c0.01-0.38,0.24-0.72,0.58-0.89c0.34-0.17,0.75-0.14,1.06,0.08c2.44,1.71,5.17,3.59,6.31,4.33l5.7-4.52
			c0.36-0.29,0.88-0.3,1.26-0.03l6.19,4.45l5.91-4.38c0.37-0.28,0.88-0.27,1.25,0.01l5.8,4.38l6.02-4.28
			c0.3-0.21,0.68-0.25,1.02-0.11c0.33,0.14,0.57,0.45,0.62,0.81c0.05,0.33,1.08,8.03-1.94,13.72
			C47.39,52.26,39.78,55.98,31.97,55.98z M13.13,34.27c0.04,2.01,0.25,5.15,1.03,7.46c1.19,3.52,2.98,7.15,7.94,9.78
			c9.52,5.04,22.32,1.86,26.86-6.68c1.89-3.56,1.98-8.19,1.86-10.69l-5.15,3.66c-0.37,0.26-0.87,0.26-1.23-0.02l-5.78-4.37
			l-5.89,4.37c-0.36,0.27-0.86,0.27-1.23,0.01l-6.17-4.44l-5.64,4.47c-0.14,0.11-0.3,0.18-0.48,0.21
			C18.77,38.13,18.67,38.14,13.13,34.27z"/>
	</g>
	<g>
		<g>
			<rect x="41.51" y="12.25" class="st0" width="8.44" height="8.44"/>
		</g>
		<g>
			<path class="st2" d="M48.91,13.3v6.36h-6.36V13.3H48.91 M51,11.21h-2.09h-6.36h-2.09v2.09v6.36v2.09h2.09h6.36H51v-2.09V13.3
				V11.21L51,11.21z"/>
		</g>
	</g>
	<g>
		<g>
			<rect x="43.31" y="20.5" class="st0" width="8.44" height="8.44"/>
		</g>
		<g>
			<path class="st2" d="M50.71,21.54v6.36h-6.36v-6.36H50.71 M52.8,19.45h-2.09h-6.36h-2.09v2.09v6.36v2.09h2.09h6.36h2.09V27.9
				v-6.36V19.45L52.8,19.45z"/>
		</g>
	</g>
	<g>
		<g>
			<path class="st1" d="M44.43,46.46c-0.27,0-0.53-0.1-0.74-0.3c-0.41-0.41-0.41-1.07,0-1.48l1.44-1.45c0.41-0.41,1.07-0.41,1.48,0
				c0.41,0.41,0.41,1.07,0,1.48l-1.44,1.45C44.96,46.35,44.7,46.46,44.43,46.46z"/>
		</g>
	</g>
	<g>
		<g>
			<path class="st1" d="M39.8,45.44c-0.31,0-0.61-0.14-0.82-0.4c-0.36-0.45-0.28-1.11,0.17-1.47l1.61-1.27
				c0.45-0.36,1.11-0.28,1.47,0.17c0.36,0.45,0.28,1.11-0.17,1.47l-1.61,1.27C40.25,45.36,40.03,45.44,39.8,45.44z"/>
		</g>
	</g>
	<g>
		<g>
			<path class="st1" d="M39.65,50.03c-0.35,0-0.69-0.17-0.88-0.49c-0.31-0.49-0.16-1.13,0.33-1.44l1.73-1.09
				c0.49-0.31,1.13-0.16,1.44,0.33c0.31,0.49,0.16,1.13-0.33,1.44l-1.73,1.09C40.03,49.98,39.84,50.03,39.65,50.03z"/>
		</g>
	</g>
	<g>
		<path class="st1" d="M26.47,23.87c-0.56,0-1.02-0.44-1.04-1.01c-0.19-5.31,1.28-10.39,3.65-12.65c0.42-0.4,1.08-0.38,1.48,0.03
			c0.4,0.42,0.38,1.08-0.03,1.48c-1.63,1.56-3.19,5.86-3,11.07c0.02,0.58-0.43,1.06-1.01,1.08C26.49,23.87,26.48,23.87,26.47,23.87z
			"/>
	</g>
	<g>
		<path class="st1" d="M30.6,25.41c0,0.68,0.55,1.22,1.22,1.22c0.68,0,1.22-0.55,1.22-1.22s-0.55-1.22-1.22-1.22
			C31.15,24.18,30.6,24.73,30.6,25.41z"/>
	</g>
	<g>
		<path class="st1" d="M21.36,25.41c0,0.68,0.55,1.22,1.22,1.22c0.68,0,1.22-0.55,1.22-1.22s-0.55-1.22-1.22-1.22
			C21.91,24.18,21.36,24.73,21.36,25.41z"/>
	</g>
	<g>
		<path class="st1" d="M28.07,26.72c-0.61-1.08-2.07-1.27-3.05-0.76c-0.4,0.21-0.86,0.67-1.06,1.18c-0.12,0.29,0.01,0.63,0.3,0.76
			c0.2,0.09,0.47,0.18,0.75,0.16c0,0-0.03,0.51,0.48,1.02c0.9,0.89,2.64,0.2,2.8-1.04C28.36,27.51,28.27,27.06,28.07,26.72z"/>
	</g>
	<g>
		<path class="st1" d="M16.9,29.66c-0.38,0-0.74-0.2-0.93-0.56c-0.27-0.51-0.07-1.14,0.44-1.41c1.85-0.97,3.49-0.66,3.67-0.62
			c0.56,0.12,0.92,0.67,0.8,1.24c-0.12,0.56-0.67,0.92-1.23,0.81c-0.06-0.01-1.1-0.19-2.28,0.42C17.23,29.62,17.06,29.66,16.9,29.66
			z"/>
	</g>
	<g>
		<path class="st1" d="M39.48,29.62c-0.16,0-0.31-0.03-0.46-0.11c-0.05-0.02-1.51-0.69-4.29-0.49c-0.57,0.05-1.07-0.39-1.12-0.97
			c-0.04-0.57,0.39-1.07,0.97-1.12c3.39-0.25,5.18,0.61,5.38,0.7c0.51,0.26,0.72,0.89,0.46,1.4C40.23,29.41,39.86,29.62,39.48,29.62
			z"/>
	</g>
	<g>
		<path class="st1" d="M29.88,11.77c-0.57,0-1.04-0.46-1.04-1.04c-0.03-3.75,2.35-5.97,2.45-6.06c0.43-0.39,1.09-0.36,1.47,0.07
			c0.39,0.43,0.36,1.09-0.07,1.47c-0.07,0.06-1.79,1.71-1.77,4.5C30.93,11.29,30.46,11.76,29.88,11.77
			C29.88,11.77,29.88,11.77,29.88,11.77z"/>
	</g>
</g>
</svg>
